<svg width="187" height="50" viewBox="0 0 187 50" fill="none" xmlns="http://www.w3.org/2000/svg">
<g filter="url(#filter0_d_1_11)">
<path d="M78.8413 10.9091V40H73.5288L60.8725 21.6903H60.6594V40H54.5089V10.9091H59.9066L72.4634 29.2045H72.7191V10.9091H78.8413ZM88.9371 40H82.3462L92.3888 10.9091H100.315L110.343 40H103.752L96.4656 17.5568H96.2383L88.9371 40ZM88.5252 28.5653H104.093V33.3665H88.5252V28.5653ZM113.845 40V10.9091H125.322C127.529 10.9091 129.408 11.3305 130.961 12.1733C132.514 13.0066 133.698 14.1667 134.512 15.6534C135.336 17.1307 135.748 18.8352 135.748 20.767C135.748 22.6989 135.332 24.4034 134.498 25.8807C133.665 27.358 132.458 28.5085 130.876 29.3324C129.304 30.1562 127.401 30.5682 125.166 30.5682H117.85V25.6392H124.172C125.355 25.6392 126.331 25.4356 127.098 25.0284C127.874 24.6117 128.452 24.0388 128.831 23.3097C129.219 22.571 129.413 21.7235 129.413 20.767C129.413 19.8011 129.219 18.9583 128.831 18.2386C128.452 17.5095 127.874 16.946 127.098 16.5483C126.321 16.1411 125.336 15.9375 124.143 15.9375H119.995V40H113.845ZM145.894 10.9091V40H139.743V10.9091H145.894ZM156.721 10.9091L162.588 20.8239H162.815L168.71 10.9091H175.656L166.778 25.4545L175.855 40H168.781L162.815 30.071H162.588L156.622 40H149.576L158.681 25.4545L149.747 10.9091H156.721Z" fill="#00A78E"/>
</g>
<rect width="50" height="50" rx="5" fill="black"/>
<path d="M30.2042 18.2066C30.0906 17.0608 29.6029 16.1706 28.7411 15.5361C27.8794 14.9017 26.7099 14.5844 25.2326 14.5844C24.2288 14.5844 23.3813 14.7265 22.69 15.0106C21.9987 15.2852 21.4684 15.6687 21.0991 16.1611C20.7392 16.6536 20.5593 17.2123 20.5593 17.8373C20.5404 18.3581 20.6493 18.8127 20.886 19.2009C21.1322 19.5892 21.4684 19.9253 21.8945 20.2094C22.3207 20.4841 22.8131 20.7255 23.3718 20.9339C23.9305 21.1327 24.5271 21.3032 25.1616 21.4452L27.7752 22.0702C29.0442 22.3543 30.2089 22.7331 31.2695 23.2066C32.3301 23.6801 33.2487 24.2625 34.0252 24.9538C34.8017 25.645 35.4031 26.4594 35.8292 27.3969C36.2648 28.3344 36.4873 29.4092 36.4968 30.6214C36.4873 32.4017 36.0328 33.9452 35.1332 35.2521C34.243 36.5494 32.9551 37.5579 31.2695 38.2776C29.5934 38.9878 27.5716 39.343 25.2042 39.343C22.8557 39.343 20.8103 38.9831 19.0678 38.2634C17.3349 37.5437 15.9807 36.4784 15.0053 35.0674C14.0394 33.6469 13.5328 31.8903 13.4854 29.7975H19.4371C19.5034 30.7729 19.7828 31.5873 20.2752 32.2407C20.7771 32.8846 21.4447 33.3723 22.2781 33.7038C23.1209 34.0257 24.0726 34.1867 25.1332 34.1867C26.1748 34.1867 27.0792 34.0352 27.8462 33.7322C28.6228 33.4291 29.2241 33.0077 29.6502 32.468C30.0764 31.9282 30.2894 31.3079 30.2894 30.6072C30.2894 29.9538 30.0953 29.4045 29.707 28.9594C29.3282 28.5144 28.7695 28.1356 28.0309 27.8231C27.3017 27.5106 26.4068 27.2265 25.3462 26.9708L22.1786 26.1753C19.726 25.5788 17.7894 24.646 16.369 23.3771C14.9485 22.1081 14.243 20.3988 14.2525 18.2492C14.243 16.4878 14.7118 14.949 15.6587 13.6327C16.6152 12.3164 17.9267 11.289 19.5934 10.5503C21.2601 9.81171 23.154 9.44239 25.2752 9.44239C27.4343 9.44239 29.3188 9.81171 30.9286 10.5503C32.5479 11.289 33.8074 12.3164 34.707 13.6327C35.6067 14.949 36.0707 16.4736 36.0991 18.2066H30.2042Z" fill="#F5F5F5"/>
<defs>
<filter id="filter0_d_1_11" x="52.5089" y="10.9091" width="125.346" height="33.0909" filterUnits="userSpaceOnUse" color-interpolation-filters="sRGB">
<feFlood flood-opacity="0" result="BackgroundImageFix"/>
<feColorMatrix in="SourceAlpha" type="matrix" values="0 0 0 0 0 0 0 0 0 0 0 0 0 0 0 0 0 0 127 0" result="hardAlpha"/>
<feOffset dy="2"/>
<feGaussianBlur stdDeviation="1"/>
<feComposite in2="hardAlpha" operator="out"/>
<feColorMatrix type="matrix" values="0 0 0 0 0 0 0 0 0 0 0 0 0 0 0 0 0 0 0.09 0"/>
<feBlend mode="normal" in2="BackgroundImageFix" result="effect1_dropShadow_1_11"/>
<feBlend mode="normal" in="SourceGraphic" in2="effect1_dropShadow_1_11" result="shape"/>
</filter>
</defs>
</svg>
