<svg version="1.1" id="Layer_1" xmlns="http://www.w3.org/2000/svg" xmlns:xlink="http://www.w3.org/1999/xlink" x="0px" y="0px"
	 width="187" height="50" viewBox="0 0 2000 1270" enable-background="new 0 0 2000 1270" xml:space="preserve">
<path fill="#4C6971" opacity="1.000000" stroke="none" 
	d="
M2001.000000,393.000000 
	C2001.000000,685.999939 2001.000000,978.499817 2001.000000,1270.999756 
	C1334.333618,1270.999878 667.667236,1270.999878 1.000643,1271.000000 
	C1.000429,847.667053 1.000429,424.334167 1.000214,1.000927 
	C667.666077,1.000618 1334.332153,1.000618 2000.999023,1.000309 
	C2001.000000,131.500000 2001.000000,262.000000 2001.000000,393.000000 
M2000.000000,909.500000 
	C2000.000000,610.004700 2000.000122,310.509399 1999.998901,11.014106 
	C1999.998901,9.180880 2000.448608,7.171056 1999.838013,5.567368 
	C1999.298584,4.149918 1997.748291,2.798567 1996.312866,2.137647 
	C1995.073120,1.566706 1993.367065,2.002589 1991.867188,2.002587 
	C1331.209229,2.001818 670.551331,2.001795 9.893383,2.002271 
	C2.003933,2.002277 2.000148,2.005357 2.000136,9.753630 
	C1.999507,427.248108 1.999544,844.742554 2.000123,1262.237061 
	C2.000134,1269.993896 2.003867,1269.998413 9.883948,1269.998413 
	C670.708496,1269.999146 1331.533081,1269.999146 1992.357666,1269.998291 
	C1999.994263,1269.998169 1999.999146,1269.992554 1999.999268,1262.495361 
	C2000.000244,1145.163574 2000.000000,1027.831787 2000.000000,909.500000 
z"/>
<path fill="#00A78E" opacity="1.000000" stroke="none" 
	d="
M2000.000000,910.000000 
	C2000.000000,1027.831787 2000.000244,1145.163574 1999.999268,1262.495361 
	C1999.999146,1269.992554 1999.994263,1269.998169 1992.357666,1269.998291 
	C1331.533081,1269.999146 670.708496,1269.999146 9.883948,1269.998413 
	C2.003867,1269.998413 2.000134,1269.993896 2.000123,1262.237061 
	C1.999544,844.742554 1.999507,427.248108 2.000136,9.753630 
	C2.000148,2.005357 2.003933,2.002277 9.893383,2.002271 
	C670.551331,2.001795 1331.209229,2.001818 1991.867188,2.002587 
	C1993.367065,2.002589 1995.073120,1.566706 1996.312866,2.137647 
	C1997.748291,2.798567 1999.298584,4.149918 1999.838013,5.567368 
	C2000.448608,7.171056 1999.998901,9.180880 1999.998901,11.014106 
	C2000.000122,310.509399 2000.000000,610.004700 2000.000000,910.000000 
M32.311157,1097.499878 
	C32.311157,1144.755737 32.311157,1192.011475 32.311157,1239.370361 
	C678.430481,1239.370361 1323.794189,1239.370361 1969.398682,1239.370361 
	C1969.398682,836.992798 1969.398682,434.948273 1969.398682,32.708855 
	C1323.628174,32.708855 678.148010,32.708855 32.311172,32.708855 
	C32.311172,387.587494 32.311172,742.043640 32.311157,1097.499878 
z"/>
<path fill="#FFFFFF" opacity="1.000000" stroke="none" 
	d="
M32.311165,1096.999756 
	C32.311172,742.043640 32.311172,387.587494 32.311172,32.708855 
	C678.148010,32.708855 1323.628174,32.708855 1969.398682,32.708855 
	C1969.398682,434.948273 1969.398682,836.992798 1969.398682,1239.370361 
	C1323.794189,1239.370361 678.430481,1239.370361 32.311157,1239.370361 
	C32.311157,1192.011475 32.311157,1144.755737 32.311165,1096.999756 
M1910.437134,158.500275 
	C1910.437134,136.261078 1910.437134,114.021881 1910.437134,91.941414 
	C1303.663696,91.941414 697.784302,91.941414 91.922264,91.941414 
	C91.922264,454.912781 91.922264,817.470215 91.922264,1180.147583 
	C698.161011,1180.147583 1304.040283,1180.147583 1910.437256,1180.147583 
	C1910.437256,839.715454 1910.437256,499.607880 1910.437134,158.500275 
z"/>
<path fill="#00A78E" opacity="1.000000" stroke="none" 
	d="
M1910.437256,159.000275 
	C1910.437256,499.607880 1910.437256,839.715454 1910.437256,1180.147583 
	C1304.040283,1180.147583 698.161011,1180.147583 91.922264,1180.147583 
	C91.922264,817.470215 91.922264,454.912781 91.922264,91.941414 
	C697.784302,91.941414 1303.663696,91.941414 1910.437134,91.941414 
	C1910.437134,114.021881 1910.437134,136.261078 1910.437256,159.000275 
M1377.685303,774.825500 
	C1364.338257,740.410828 1350.860962,706.046082 1337.666626,671.572937 
	C1282.330566,526.993591 1227.062256,382.388184 1171.807861,237.777527 
	C1157.347412,199.931763 1118.487671,174.084488 1073.420532,182.042389 
	C1037.970703,188.302063 1007.052795,222.269424 1004.076721,257.979279 
	C1002.923462,271.816986 1004.926270,285.306458 1009.976074,298.390717 
	C1060.387939,429.010193 1110.709717,559.664490 1161.055786,690.309448 
	C1200.223511,791.947327 1239.226318,893.652771 1285.073853,992.549744 
	C1296.484985,1017.164368 1307.581299,1041.944214 1326.274780,1062.279663 
	C1349.238892,1087.260620 1377.459961,1096.458618 1410.496216,1089.611572 
	C1426.633789,1086.266846 1441.061279,1078.547119 1453.895264,1068.093750 
	C1473.989746,1051.726685 1490.346924,1032.172729 1504.050537,1010.204041 
	C1538.888062,954.355164 1565.295166,894.224426 1590.519775,833.830505 
	C1624.411011,752.685730 1654.919434,670.128418 1686.898315,588.184570 
	C1724.399902,492.089172 1763.216064,396.583893 1812.601807,305.769531 
	C1822.502441,287.563507 1823.399902,267.933990 1818.874878,248.186096 
	C1808.987671,205.037064 1767.360596,175.090347 1721.572021,183.137573 
	C1694.370361,187.918213 1673.282959,202.251648 1659.908936,226.828171 
	C1652.038452,241.290970 1644.371338,255.877213 1637.062256,270.630707 
	C1595.824829,353.869843 1561.002319,439.875793 1526.961182,526.222595 
	C1489.095825,622.269775 1451.072266,718.254578 1413.010864,814.224304 
	C1410.153198,821.429932 1406.441895,828.296936 1403.127441,835.321350 
	C1402.657471,835.309937 1402.187622,835.298462 1401.717773,835.287048 
	C1393.793823,815.376892 1385.869751,795.466736 1377.685303,774.825500 
M777.070312,809.612000 
	C807.401733,731.846985 837.700012,654.068970 868.073181,576.320251 
	C904.034546,484.267395 941.457947,392.869415 988.795288,305.885620 
	C998.275513,288.465515 999.673096,269.547760 995.689697,250.564255 
	C985.957458,204.183762 943.118591,174.782959 896.614746,183.246872 
	C869.165710,188.242722 848.442810,203.714539 834.984802,228.713608 
	C797.792175,297.800934 766.305359,369.522705 737.149597,442.246979 
	C700.211914,534.382202 664.389282,626.964111 627.950745,719.300049 
	C620.506165,738.164795 612.462463,756.793091 604.697754,775.531494 
	C597.383606,793.182861 590.104736,810.848999 582.722961,828.471985 
	C581.745544,830.805359 580.252563,832.922729 578.624573,835.800903 
	C575.778748,829.216064 573.134705,823.650940 570.930054,817.916992 
	C496.637268,624.696655 422.324677,431.483948 348.178619,238.207336 
	C332.405243,197.090897 291.321136,173.617249 248.870941,182.326187 
	C201.511795,192.042221 181.771255,232.939529 180.031738,267.080139 
	C179.474762,278.011993 182.423599,288.388519 186.296112,298.431763 
	C245.217880,451.243408 304.459229,603.932373 363.095642,756.853333 
	C395.436981,841.197998 429.914764,924.617981 467.915833,1006.563599 
	C477.439758,1027.101074 488.102142,1046.997192 503.807098,1063.845703 
	C519.576843,1080.763794 539.057739,1089.640991 561.598633,1091.853149 
	C575.709473,1093.238037 589.357422,1089.821899 602.450073,1084.527344 
	C625.203674,1075.325928 642.352600,1058.854980 658.089783,1040.790405 
	C675.596619,1020.694641 688.690369,997.607239 701.024658,974.181519 
	C729.091187,920.876404 753.523010,865.862122 777.070312,809.612000 
z"/>
<path fill="#FFFFFF" opacity="1.000000" stroke="none" 
	d="
M1377.815552,775.191040 
	C1385.869751,795.466736 1393.793823,815.376892 1401.717773,835.287048 
	C1402.187622,835.298462 1402.657471,835.309937 1403.127441,835.321350 
	C1406.441895,828.296936 1410.153198,821.429932 1413.010864,814.224304 
	C1451.072266,718.254578 1489.095825,622.269775 1526.961182,526.222595 
	C1561.002319,439.875793 1595.824829,353.869843 1637.062256,270.630707 
	C1644.371338,255.877213 1652.038452,241.290970 1659.908936,226.828171 
	C1673.282959,202.251648 1694.370361,187.918213 1721.572021,183.137573 
	C1767.360596,175.090347 1808.987671,205.037064 1818.874878,248.186096 
	C1823.399902,267.933990 1822.502441,287.563507 1812.601807,305.769531 
	C1763.216064,396.583893 1724.399902,492.089172 1686.898315,588.184570 
	C1654.919434,670.128418 1624.411011,752.685730 1590.519775,833.830505 
	C1565.295166,894.224426 1538.888062,954.355164 1504.050537,1010.204041 
	C1490.346924,1032.172729 1473.989746,1051.726685 1453.895264,1068.093750 
	C1441.061279,1078.547119 1426.633789,1086.266846 1410.496216,1089.611572 
	C1377.459961,1096.458618 1349.238892,1087.260620 1326.274780,1062.279663 
	C1307.581299,1041.944214 1296.484985,1017.164368 1285.073853,992.549744 
	C1239.226318,893.652771 1200.223511,791.947327 1161.055786,690.309448 
	C1110.709717,559.664490 1060.387939,429.010193 1009.976074,298.390717 
	C1004.926270,285.306458 1002.923462,271.816986 1004.076721,257.979279 
	C1007.052795,222.269424 1037.970703,188.302063 1073.420532,182.042389 
	C1118.487671,174.084488 1157.347412,199.931763 1171.807861,237.777527 
	C1227.062256,382.388184 1282.330566,526.993591 1337.666626,671.572937 
	C1350.860962,706.046082 1364.338257,740.410828 1377.815552,775.191040 
z"/>
<path fill="#FFFFFF" opacity="1.000000" stroke="none" 
	d="
M776.957275,809.979309 
	C753.523010,865.862122 729.091187,920.876404 701.024658,974.181519 
	C688.690369,997.607239 675.596619,1020.694641 658.089783,1040.790405 
	C642.352600,1058.854980 625.203674,1075.325928 602.450073,1084.527344 
	C589.357422,1089.821899 575.709473,1093.238037 561.598633,1091.853149 
	C539.057739,1089.640991 519.576843,1080.763794 503.807098,1063.845703 
	C488.102142,1046.997192 477.439758,1027.101074 467.915833,1006.563599 
	C429.914764,924.617981 395.436981,841.197998 363.095642,756.853333 
	C304.459229,603.932373 245.217880,451.243408 186.296112,298.431763 
	C182.423599,288.388519 179.474762,278.011993 180.031738,267.080139 
	C181.771255,232.939529 201.511795,192.042221 248.870941,182.326187 
	C291.321136,173.617249 332.405243,197.090897 348.178619,238.207336 
	C422.324677,431.483948 496.637268,624.696655 570.930054,817.916992 
	C573.134705,823.650940 575.778748,829.216064 578.624573,835.800903 
	C580.252563,832.922729 581.745544,830.805359 582.722961,828.471985 
	C590.104736,810.848999 597.383606,793.182861 604.697754,775.531494 
	C612.462463,756.793091 620.506165,738.164795 627.950745,719.300049 
	C664.389282,626.964111 700.211914,534.382202 737.149597,442.246979 
	C766.305359,369.522705 797.792175,297.800934 834.984802,228.713608 
	C848.442810,203.714539 869.165710,188.242722 896.614746,183.246872 
	C943.118591,174.782959 985.957458,204.183762 995.689697,250.564255 
	C999.673096,269.547760 998.275513,288.465515 988.795288,305.885620 
	C941.457947,392.869415 904.034546,484.267395 868.073181,576.320251 
	C837.700012,654.068970 807.401733,731.846985 776.957275,809.979309 
z"/>
</svg>